<svg version="1.1" xmlns="http://www.w3.org/2000/svg" xmlns:xlink="http://www.w3.org/1999/xlink" width="84.672" height="48.343" viewBox="0,0,84.672,48.343"><defs><linearGradient x1="197.914" y1="180.0008" x2="282.0869" y2="180.0008" gradientUnits="userSpaceOnUse" id="color-1"><stop offset="0" stop-color="#ffffff"/><stop offset="1" stop-color="#ffffff"/></linearGradient></defs><g transform="translate(-197.664,-155.8285)"><g data-paper-data="{&quot;isPaintingLayer&quot;:true}" fill-rule="nonzero" stroke-linecap="butt" stroke-linejoin="miter" stroke-miterlimit="10" stroke-dasharray="" stroke-dashoffset="0" style="mix-blend-mode: normal"><path d="M282.086,161.2695v37.462c0,2.862 -2.327,5.19 -5.191,5.19h-73.791c-2.861,0 -5.19,-2.328 -5.19,-5.19v-37.463c0,-2.862 2.329,-5.19 5.19,-5.19h73.791c2.864,0 5.191,2.329 5.191,5.191z" fill="url(#color-1)" stroke="#000000" stroke-width="0.5"/><path d="M256.88889,181.29167h24.83333v2h-24.83333z" fill="#b3b3b3" stroke="none" stroke-width="0"/><path d="M271.89178,197.67721h-32.36111v-2h32.36111z" fill="#b3b3b3" stroke="none" stroke-width="0"/><path d="M222,203.625v-17.83334h2v17.83334z" fill="#b3b3b3" stroke="none" stroke-width="0"/><path d="M204.75,203.625v-34.5h2v34.5z" fill="#b3b3b3" stroke="none" stroke-width="0"/><path d="M239,197.66667v-41.29166h2v41.29166z" fill="#b3b3b3" stroke="none" stroke-width="0"/><text transform="translate(202.83552,182.87792) scale(0.24944,0.24944)" font-size="40" xml:space="preserve" fill="#000000" fill-rule="nonzero" stroke="none" stroke-width="1" stroke-linecap="butt" stroke-linejoin="miter" stroke-miterlimit="10" stroke-dasharray="" stroke-dashoffset="0" font-family="Handwriting" font-weight="normal" text-anchor="start" style="mix-blend-mode: normal"><tspan x="0" dy="0">Website Labyrinth</tspan></text><path d="M224,168.06945h32.05556v2h-32.05556z" fill="#b3b3b3" stroke="none" stroke-width="0"/><path d="M272.08333,156.31945v13.05555h-2v-13.05555z" fill="#b3b3b3" stroke="none" stroke-width="0"/></g></g></svg>